<?xml version="1.0" encoding="utf-8"?>
<!-- Generator: Adobe Illustrator 21.1.0, SVG Export Plug-In . SVG Version: 6.00 Build 0)  -->
<svg version="1.1" id="Layer_1" xmlns="http://www.w3.org/2000/svg" xmlns:xlink="http://www.w3.org/1999/xlink" x="0px" y="0px"
	 viewBox="0 0 87.7 111.2" style="enable-background:new 0 0 87.7 111.2;" xml:space="preserve">
<g>
	<polygon points="19.8,72 25.7,72 25.7,5.2 19.8,5.2 19.8,50.2 14.8,50.2 14.8,55.3 19.8,55.3 	"/>
	<polygon points="57.7,35.3 66.7,35.3 66.7,55 72.5,55 72.5,41 76.8,41 76.8,35.2 72.5,35.2 68.8,35.2 66.8,35.2 66.8,30 57.7,30 
		57.7,30 51.8,30 51.8,50.2 57.7,50.2 	"/>
	<polygon points="87.7,46 81.8,46 81.8,41.1 76.8,41.1 76.8,46.1 81.8,46.1 81.8,80.8 77,80.8 77,96 71.8,96 71.8,106 30.8,106 
		30.8,96 25.5,96 25.5,86 20.5,86 20.5,76 15,76 15,64.7 10.2,64.7 10.2,59.8 4.7,59.8 4.7,50.2 14.7,50.2 14.7,45 4.7,45 0.3,45 
		0,45 0,60 4.7,60 4.7,65 10,65 10,76 14.8,76 14.8,86.2 20.5,86.2 20.5,96 25.2,96 25.2,106 25.2,106.8 25.2,111.2 77.7,111.2 
		77.7,106 77.7,106 77.7,96 82.8,96 82.8,81 87.7,81 	"/>
	<polygon points="41.7,29.9 51.8,29.9 51.8,24.9 41.7,24.9 41.7,5.1 35.8,5.1 35.8,50.7 41.7,50.7 	"/>
	<rect x="25.8" width="10" height="5.2"/>
</g>
</svg>
